<svg width="29" height="28" viewBox="0 0 29 28" fill="none" xmlns="http://www.w3.org/2000/svg">
<g clip-path="url(#clip0_196_5993)">
<path d="M1.46848 9.89746L0.00585938 13.189H0.9581L1.22797 12.5299H2.79686L3.06534 13.189H4.03855L2.57733 9.89746H1.46848ZM2.00962 10.6635L2.48784 11.8153H1.53L2.00962 10.6635Z" fill="white"/>
<path d="M4.1394 13.1881V9.89648L5.49259 9.90135L6.27965 12.0235L7.04786 9.89648H8.39023V13.1881H7.54006V10.7627L6.63887 13.1881H5.89328L4.98957 10.7627V13.1881H4.1394Z" fill="white"/>
<path d="M8.97168 13.1881V9.89648H11.7459V10.6328H9.83079V11.1958H11.7012V11.8888H9.83079V12.4734H11.7459V13.1881H8.97168Z" fill="white"/>
<path d="M12.2383 9.89746V13.189H13.0884V12.0197H13.4464L14.4658 13.189H15.5047L14.3861 11.9763C14.8452 11.9389 15.3187 11.5575 15.3187 10.9653C15.3187 10.2727 14.7571 9.89746 14.1302 9.89746H12.2383ZM13.0884 10.6337H14.0603C14.2934 10.6337 14.463 10.8102 14.463 10.9802C14.463 11.1989 14.2432 11.3267 14.0728 11.3267H13.0884V10.6337Z" fill="white"/>
<path d="M16.534 13.1881H15.6659V9.89648H16.534V13.1881Z" fill="white"/>
<path d="M18.5926 13.1881H18.4053C17.4987 13.1881 16.9482 12.4967 16.9482 11.5558C16.9482 10.5916 17.4925 9.89648 18.6374 9.89648H19.577V10.6761H18.603C18.1383 10.6761 17.8096 11.0271 17.8096 11.5639C17.8096 12.2014 18.1854 12.4691 18.7269 12.4691H18.9506L18.5926 13.1881Z" fill="white"/>
<path d="M20.4421 9.89746L18.9795 13.189H19.9317L20.2016 12.5299H21.7705L22.039 13.189H23.0122L21.551 9.89746H20.4421ZM20.9833 10.6635L21.4615 11.8153H20.5036L20.9833 10.6635Z" fill="white"/>
<path d="M23.1116 13.1881V9.89648H24.1925L25.5726 11.9645V9.89648H26.4227V13.1881H25.3768L23.9617 11.0659V13.1881H23.1116Z" fill="white"/>
<path d="M6.19727 18.9478V15.6562H8.97149V16.3925H7.05638V16.9556H8.92674V17.6485H7.05638V18.2332H8.97149V18.9478H6.19727Z" fill="white"/>
<path d="M19.791 18.9478V15.6562H22.5652V16.3925H20.6501V16.9556H22.5115V17.6485H20.6501V18.2332H22.5652V18.9478H19.791Z" fill="white"/>
<path d="M9.08001 18.9478L10.4308 17.3223L9.04785 15.6562H10.1189L10.9425 16.6862L11.7689 15.6562H12.7981L11.4333 17.302L12.7866 18.9478H11.7157L10.916 17.9341L10.1357 18.9478H9.08001Z" fill="white"/>
<path d="M12.8867 15.6572V18.9488H13.7593V17.9094H14.6542C15.4114 17.9094 15.9853 17.5205 15.9853 16.7643C15.9853 16.1379 15.5352 15.6572 14.7646 15.6572H12.8867ZM13.7593 16.4016H14.7017C14.9463 16.4016 15.1212 16.5467 15.1212 16.7806C15.1212 17.0003 14.9472 17.1595 14.6989 17.1595H13.7593V16.4016Z" fill="white"/>
<path d="M16.3545 15.6562V18.9478H17.2047V17.7784H17.5626L18.582 18.9478H19.6209L18.5023 17.7351C18.9614 17.6976 19.4349 17.3162 19.4349 16.7241C19.4349 16.0315 18.8733 15.6562 18.2464 15.6562H16.3545ZM17.2047 16.3925H18.1765C18.4096 16.3925 18.5792 16.569 18.5792 16.739C18.5792 16.9577 18.3595 17.0855 18.1891 17.0855H17.2047V16.3925Z" fill="white"/>
<path d="M22.9595 18.9478V18.2332H24.661C24.9127 18.2332 25.0217 18.1015 25.0217 17.9571C25.0217 17.8187 24.9131 17.6788 24.661 17.6788H23.8921C23.2238 17.6788 22.8516 17.2847 22.8516 16.693C22.8516 16.1652 23.1924 15.6562 24.1855 15.6562H25.8411L25.4832 16.3969H24.0513C23.7776 16.3969 23.6933 16.5359 23.6933 16.6686C23.6933 16.8051 23.7975 16.9556 24.0066 16.9556H24.812C25.557 16.9556 25.8803 17.3646 25.8803 17.9003C25.8803 18.4761 25.52 18.9478 24.7714 18.9478H22.9595Z" fill="white"/>
<path d="M26.0796 18.9478V18.2332H27.7811C28.0328 18.2332 28.1418 18.1015 28.1418 17.9571C28.1418 17.8187 28.0332 17.6788 27.7811 17.6788H27.0122C26.3439 17.6788 25.9717 17.2847 25.9717 16.693C25.9717 16.1652 26.3125 15.6562 27.3057 15.6562H28.9612L28.6033 16.3969H27.1714C26.8977 16.3969 26.8135 16.5359 26.8135 16.6686C26.8135 16.8051 26.9176 16.9556 27.1267 16.9556H27.9321C28.6771 16.9556 29.0004 17.3646 29.0004 17.9003C29.0004 18.4761 28.6402 18.9478 27.8915 18.9478H26.0796Z" fill="white"/>
</g>
<defs>
<clipPath id="clip0_196_5993">
<rect width="29" height="28" fill="white"/>
</clipPath>
</defs>
</svg>
