<svg width="19" height="16" viewBox="0 0 19 16" fill="none" xmlns="http://www.w3.org/2000/svg">
<path d="M1.11077 8.96348C0.543692 8.96348 0.0839844 8.50378 0.0839844 7.9367C0.0839844 7.36962 0.543692 6.90991 1.11077 6.90991H17.5393C18.1064 6.90991 18.5661 7.36962 18.5661 7.9367C18.5661 8.50378 18.1064 8.96348 17.5393 8.96348H1.11077Z" fill="black"/>
<path d="M10.6552 2.50283C10.2542 2.10185 10.2542 1.45172 10.6552 1.05074C11.0562 0.649754 11.7063 0.649754 12.1073 1.05074L18.268 7.21145C18.669 7.61244 18.669 8.26256 18.268 8.66355L12.1073 14.8243C11.7063 15.2252 11.0562 15.2252 10.6552 14.8243C10.2542 14.4233 10.2542 13.7732 10.6552 13.3722L16.0899 7.9375L10.6552 2.50283Z" fill="black"/>
</svg>
