<svg id="Слой_1" data-name="Слой 1" xmlns="http://www.w3.org/2000/svg" viewBox="0 0 24 24"><defs><style>.cls-1{fill:#151515;}</style></defs><path class="cls-1" d="M6.1,22.1a2.66,2.66,0,0,1-2.58-2L.87,9.46a1.94,1.94,0,0,1,.35-1.67A2,2,0,0,1,2.77,7H21.24a1.64,1.64,0,0,1,.85.2,2,2,0,0,1,.69.55,1.92,1.92,0,0,1,.37.79,2,2,0,0,1,0,.88L20.48,20.07a2.69,2.69,0,0,1-2.59,2H6.1Zm0-2.5H17.89a.21.21,0,0,0,.17-.13l2.48-9.93H3.46l2.48,9.93a.15.15,0,0,0,.06.09.14.14,0,0,0,.1,0ZM2.76,9.54Zm18.48,0h0Z"/><path class="cls-1" d="M6.9,9.54a1.21,1.21,0,0,1-.61-.16,1.24,1.24,0,0,1-.48-1.7l2.9-5.14a1.25,1.25,0,0,1,2.18,1.22L8,8.9A1.26,1.26,0,0,1,6.9,9.54Z"/><path class="cls-1" d="M16.79,9.54a1.27,1.27,0,0,1-1.09-.63L12.79,3.77A1.25,1.25,0,1,1,15,2.53l2.91,5.14a1.26,1.26,0,0,1-.47,1.71A1.27,1.27,0,0,1,16.79,9.54Z"/></svg>