<svg width="16" height="16" viewBox="0 0 16 16" fill="none" xmlns="http://www.w3.org/2000/svg">
<path fill-rule="evenodd" clip-rule="evenodd" d="M2.6665 3.33341C2.6665 2.96522 2.96498 2.66675 3.33317 2.66675H12.6665C13.0347 2.66675 13.3332 2.96522 13.3332 3.33341C13.3332 3.7016 13.0347 4.00008 12.6665 4.00008H3.33317C2.96498 4.00008 2.6665 3.7016 2.6665 3.33341Z" fill="#575757"/>
<path fill-rule="evenodd" clip-rule="evenodd" d="M5.85153 2.22226C5.85153 1.73134 6.2495 1.33337 6.74042 1.33337L9.25893 1.33337C9.74985 1.33337 10.1478 1.73134 10.1478 2.22226C10.1478 2.46772 10.3468 2.66671 10.5923 2.66671H10.6663V4.00004H10.5923C9.76389 4.00004 9.06785 3.43348 8.8705 2.66671L7.12885 2.66671C6.9315 3.43347 6.23546 4.00004 5.40708 4.00004H5.33301V2.66671H5.40708C5.65254 2.66671 5.85153 2.46772 5.85153 2.22226Z" fill="#575757"/>
<path fill-rule="evenodd" clip-rule="evenodd" d="M3.94484 5.33559C4.31175 5.30502 4.63399 5.57767 4.66456 5.94459L5.1784 12.1107C5.23599 12.8017 5.81368 13.3333 6.50713 13.3333H9.49327C10.1867 13.3333 10.7644 12.8017 10.822 12.1107L11.3358 5.94459C11.3664 5.57767 11.6886 5.30502 12.0556 5.33559C12.4225 5.36617 12.6951 5.6884 12.6646 6.05532L12.1507 12.2214C12.0355 13.6035 10.8802 14.6666 9.49327 14.6666H6.50713C5.12023 14.6666 3.96485 13.6035 3.84968 12.2214L3.33584 6.05532C3.30526 5.6884 3.57792 5.36617 3.94484 5.33559Z" fill="#575757"/>
</svg>
