<svg width="38" height="6" viewBox="0 0 38 6" fill="none" xmlns="http://www.w3.org/2000/svg">
<g clip-path="url(#clip0_196_5976)">
<path d="M1.71546 0.133545H0V5.80137H1.69185C2.59597 5.80137 3.24538 5.60239 3.82564 5.14023C4.49867 4.61068 4.9153 3.79549 4.9153 2.95622C4.9153 1.30177 3.59455 0.133545 1.71546 0.133545ZM3.06152 4.39083C2.69043 4.69894 2.22656 4.83213 1.46245 4.83213H1.16051V1.08193H1.46245C2.20463 1.08193 2.6685 1.21351 3.06152 1.54569C3.47816 1.89872 3.71094 2.42828 3.71094 2.95783C3.70925 3.50824 3.47816 4.05866 3.06152 4.39083Z" fill="white"/>
<path d="M6.60707 0.133545H5.44824V5.80137H6.60707V0.133545Z" fill="white"/>
<path d="M9.45996 2.29448C8.765 2.05217 8.55584 1.89812 8.55584 1.58841C8.55584 1.23538 8.92694 0.970598 9.41442 0.970598C9.7619 0.970598 10.0402 1.10218 10.3658 1.43436L10.968 0.662495C10.4585 0.243667 9.87828 0.0222168 9.20526 0.0222168C8.1392 0.0222168 7.34979 0.728288 7.34979 1.6542C7.34979 2.44853 7.72088 2.8449 8.81055 3.2204C9.27441 3.37445 9.5055 3.48518 9.62189 3.55097C9.85298 3.68255 9.96937 3.904 9.96937 4.14631C9.96937 4.61007 9.57466 4.94064 9.06525 4.94064C8.50861 4.94064 8.06836 4.67587 7.79004 4.19125L7.04785 4.85239C7.58088 5.60178 8.23029 5.93235 9.1108 5.93235C10.3169 5.93235 11.1737 5.16049 11.1737 4.05806C11.1754 3.17707 10.7824 2.75824 9.45996 2.29448Z" fill="white"/>
<path d="M11.546 2.9782C11.546 4.65512 12.914 5.93407 14.6986 5.93407C15.208 5.93407 15.6264 5.84581 16.1594 5.6035V4.30208C15.6955 4.74338 15.2789 4.91989 14.7459 4.91989C13.5634 4.91989 12.7521 4.1031 12.7521 2.95734C12.7521 1.87737 13.6107 1.01564 14.7003 1.01564C15.257 1.01564 15.6736 1.19216 16.1611 1.65592V0.354502C15.6517 0.112191 15.2333 0.0014663 14.7239 0.0014663C12.9612 -0.000138406 11.546 1.32375 11.546 2.9782Z" fill="white"/>
<path d="M25.5731 3.94954L23.9959 0.133545H22.7207L25.2475 5.95703H25.875L28.4474 0.133545H27.1958L25.5731 3.94954Z" fill="white"/>
<path d="M28.9805 5.80137H32.2731V4.85299H30.141V3.30926H32.2039V2.33841H30.141V1.08193H32.2731V0.133545H28.9805V5.80137Z" fill="white"/>
<path d="M36.8868 1.80851C36.8868 0.749404 36.1209 0.131592 34.7766 0.131592H33.0392V5.79942H34.198V3.53036H34.3599L35.959 5.80263H37.3962L35.5188 3.41964C36.401 3.24312 36.8868 2.67024 36.8868 1.80851ZM34.5455 2.73603H34.198V1.01579H34.5455C35.2641 1.01579 35.6588 1.30303 35.6588 1.85344C35.6824 2.42632 35.2877 2.73603 34.5455 2.73603Z" fill="white"/>
<path d="M19.8225 5.99913C21.5637 5.99913 22.9751 4.65634 22.9751 2.99993C22.9751 1.34352 21.5637 0.000732422 19.8225 0.000732422C18.0814 0.000732422 16.6699 1.34352 16.6699 2.99993C16.6699 4.65634 18.0814 5.99913 19.8225 5.99913Z" fill="white"/>
<path opacity="0.65" d="M19.8225 6.00073C21.5633 6.00073 22.9751 4.65759 22.9751 3.00154C22.9751 1.34548 21.565 0.000732422 19.8225 0.000732422C18.0801 0.000732422 16.6699 1.34387 16.6699 2.99993C16.6699 4.65599 18.0818 6.00073 19.8225 6.00073Z" fill="white"/>
<path d="M37.6987 0.37622C37.6987 0.265496 37.6295 0.222168 37.4895 0.222168H37.304V0.751721H37.4423V0.530272L37.6042 0.729256H37.7661L37.5806 0.509411C37.6531 0.507806 37.6987 0.442013 37.6987 0.37622ZM37.4676 0.442013L37.444 0.310427H37.4676C37.5367 0.310427 37.5603 0.332893 37.5603 0.37622C37.5603 0.419548 37.5131 0.442013 37.4676 0.442013Z" fill="white"/>
<path d="M37.5131 0.000732422C37.2348 0.000732422 37.0256 0.199717 37.0256 0.464493C37.0256 0.72927 37.2348 0.928253 37.5131 0.928253C37.7678 0.928253 38.0006 0.72927 38.0006 0.464493C37.977 0.220578 37.7678 0.000732422 37.5131 0.000732422ZM37.5131 0.83839C37.304 0.83839 37.1184 0.661872 37.1184 0.462888C37.1184 0.243043 37.2803 0.087387 37.5131 0.087387C37.7223 0.087387 37.8842 0.263904 37.8842 0.462888C37.8842 0.684337 37.7223 0.83839 37.5131 0.83839Z" fill="white"/>
</g>
<defs>
<clipPath id="clip0_196_5976">
<rect width="38" height="6" fill="white"/>
</clipPath>
</defs>
</svg>
