<svg width="24" height="18" viewBox="0 0 24 18" fill="none" xmlns="http://www.w3.org/2000/svg">
<path d="M14.4741 4.53857H9.51367V13.4617H14.4741V4.53857Z" fill="white"/>
<path d="M9.82838 9.00055C9.8276 8.14119 10.0221 7.29291 10.3973 6.51993C10.7724 5.74695 11.3183 5.06954 11.9936 4.53897C11.1573 3.88095 10.153 3.47173 9.0953 3.35809C8.03766 3.24446 6.96941 3.43099 6.01266 3.89637C5.05591 4.36175 4.24926 5.0872 3.68491 5.9898C3.12056 6.8924 2.82129 7.93573 2.82129 9.00055C2.82129 10.0654 3.12056 11.1087 3.68491 12.0113C4.24926 12.9139 5.05591 13.6394 6.01266 14.1047C6.96941 14.5701 8.03766 14.7566 9.0953 14.643C10.153 14.5294 11.1573 14.1202 11.9936 13.4621C11.3183 12.9316 10.7724 12.2541 10.3973 11.4812C10.0221 10.7082 9.82761 9.85991 9.82838 9.00055Z" fill="white"/>
<path d="M21.1652 9.00055C21.1653 10.0654 20.866 11.1087 20.3017 12.0113C19.7374 12.9139 18.9308 13.6393 17.974 14.1047C17.0173 14.5701 15.9491 14.7566 14.8914 14.643C13.8338 14.5294 12.8294 14.1202 11.9932 13.4621C12.6679 12.931 13.2134 12.2535 13.5884 11.4806C13.9635 10.7078 14.1584 9.85978 14.1584 9.00055C14.1584 8.14132 13.9635 7.29331 13.5884 6.52045C13.2134 5.7476 12.6679 5.07007 11.9932 4.53897C12.8294 3.88094 13.8338 3.47173 14.8914 3.35809C15.9491 3.24446 17.0173 3.431 17.974 3.89638C18.9308 4.36176 19.7374 5.08722 20.3017 5.98982C20.866 6.89242 21.1653 7.93575 21.1652 9.00055Z" fill="white"/>
<path d="M20.6246 12.5167V12.334H20.6981V12.2967H20.5107V12.334H20.5844V12.5167H20.6246ZM20.9884 12.5167V12.2964H20.931L20.8649 12.4479L20.7988 12.2964H20.7413V12.5167H20.7819V12.3505L20.8438 12.4937H20.8859L20.9479 12.3501V12.5167H20.9884Z" fill="white"/>
</svg>
