<svg width="32" height="32" viewBox="0 0 32 32" fill="none" xmlns="http://www.w3.org/2000/svg">
<g clip-path="url(#clip0_350_6364)">
<path d="M10.6695 16C10.6695 13.0546 13.0565 10.6662 16.002 10.6662C18.9474 10.6662 21.3357 13.0546 21.3357 16C21.3357 18.9454 18.9474 21.3338 16.002 21.3338C13.0565 21.3338 10.6695 18.9454 10.6695 16ZM7.78615 16C7.78615 20.5376 11.4644 24.2158 16.002 24.2158C20.5396 24.2158 24.2178 20.5376 24.2178 16C24.2178 11.4624 20.5396 7.78419 16.002 7.78419C11.4644 7.78419 7.78615 11.4624 7.78615 16ZM22.623 7.45843C22.6229 7.83817 22.7353 8.20943 22.9462 8.52526C23.157 8.84108 23.4568 9.08729 23.8075 9.23275C24.1583 9.37821 24.5444 9.41639 24.9168 9.34246C25.2893 9.26852 25.6315 9.0858 25.9001 8.81739C26.1687 8.54898 26.3517 8.20694 26.426 7.83453C26.5002 7.46211 26.4623 7.07605 26.3172 6.72516C26.172 6.37426 25.926 6.0743 25.6103 5.8632C25.2947 5.65211 24.9235 5.53935 24.5438 5.5392H24.543C24.034 5.53944 23.5459 5.74169 23.1859 6.10155C22.8259 6.4614 22.6234 6.94942 22.623 7.45843ZM9.53795 29.0236C7.97802 28.9526 7.13015 28.6927 6.56669 28.4732C5.81968 28.1824 5.28669 27.836 4.72631 27.2764C4.16592 26.7168 3.81904 26.1843 3.52951 25.4373C3.30986 24.8741 3.05002 24.026 2.9791 22.466C2.90154 20.7795 2.88605 20.2729 2.88605 16.0001C2.88605 11.7274 2.90282 11.2221 2.9791 9.53421C3.05014 7.97427 3.3119 7.12781 3.52951 6.56294C3.82032 5.81594 4.16669 5.28294 4.72631 4.72256C5.28592 4.16218 5.8184 3.8153 6.56669 3.52576C7.12989 3.30611 7.97802 3.04627 9.53795 2.97536C11.2245 2.89779 11.7311 2.8823 16.002 2.8823C20.2728 2.8823 20.7799 2.89907 22.4679 2.97536C24.0278 3.0464 24.8743 3.30816 25.4391 3.52576C26.1861 3.8153 26.7191 4.16294 27.2795 4.72256C27.8399 5.28218 28.1855 5.81594 28.4763 6.56294C28.696 7.12614 28.9558 7.97427 29.0267 9.53421C29.1043 11.2221 29.1198 11.7274 29.1198 16.0001C29.1198 20.2729 29.1043 20.7781 29.0267 22.466C28.9557 24.026 28.6946 24.8739 28.4763 25.4373C28.1855 26.1843 27.8391 26.7173 27.2795 27.2764C26.7199 27.8355 26.1861 28.1824 25.4391 28.4732C24.8759 28.6929 24.0278 28.9527 22.4679 29.0236C20.7813 29.1012 20.2747 29.1167 16.002 29.1167C11.7292 29.1167 11.224 29.1012 9.53795 29.0236ZM9.40547 0.096896C7.70218 0.174464 6.53827 0.444544 5.52182 0.840064C4.46915 1.24851 3.57802 1.79648 2.68752 2.68557C1.79703 3.57466 1.25047 4.4672 0.842017 5.51987C0.446497 6.53696 0.176417 7.70022 0.0988491 9.40352C0.0200011 11.1095 0.00195312 11.6549 0.00195312 16C0.00195312 20.3451 0.0200011 20.8905 0.0988491 22.5965C0.176417 24.2999 0.446497 25.463 0.842017 26.4801C1.25047 27.5322 1.79715 28.4257 2.68752 29.3144C3.57789 30.2031 4.46915 30.7503 5.52182 31.1599C6.54019 31.5555 7.70218 31.8255 9.40547 31.9031C11.1124 31.9807 11.6569 32 16.002 32C20.347 32 20.8924 31.982 22.5984 31.9031C24.3019 31.8255 25.465 31.5555 26.4821 31.1599C27.5341 30.7503 28.4259 30.2035 29.3164 29.3144C30.2069 28.4253 30.7523 27.5322 31.1619 26.4801C31.5574 25.463 31.8288 24.2998 31.9051 22.5965C31.9826 20.8892 32.0007 20.3451 32.0007 16C32.0007 11.6549 31.9826 11.1095 31.9051 9.40352C31.8275 7.7001 31.5574 6.53632 31.1619 5.51987C30.7523 4.46784 30.2055 3.57606 29.3164 2.68557C28.4273 1.79507 27.5341 1.24851 26.4834 0.840064C25.465 0.444544 24.3017 0.173184 22.5997 0.096896C20.8937 0.019328 20.3483 0 16.0032 0C11.6581 0 11.1124 0.018048 9.40547 0.096896Z" fill="white"/>
<path d="M10.6695 16C10.6695 13.0546 13.0565 10.6662 16.002 10.6662C18.9474 10.6662 21.3357 13.0546 21.3357 16C21.3357 18.9454 18.9474 21.3338 16.002 21.3338C13.0565 21.3338 10.6695 18.9454 10.6695 16ZM7.78615 16C7.78615 20.5376 11.4644 24.2158 16.002 24.2158C20.5396 24.2158 24.2178 20.5376 24.2178 16C24.2178 11.4624 20.5396 7.78419 16.002 7.78419C11.4644 7.78419 7.78615 11.4624 7.78615 16ZM22.623 7.45843C22.6229 7.83817 22.7353 8.20943 22.9462 8.52526C23.157 8.84108 23.4568 9.08729 23.8075 9.23275C24.1583 9.37821 24.5444 9.41639 24.9168 9.34246C25.2893 9.26852 25.6315 9.0858 25.9001 8.81739C26.1687 8.54898 26.3517 8.20694 26.426 7.83453C26.5002 7.46211 26.4623 7.07605 26.3172 6.72516C26.172 6.37426 25.926 6.0743 25.6103 5.8632C25.2947 5.65211 24.9235 5.53935 24.5438 5.5392H24.543C24.034 5.53944 23.5459 5.74169 23.1859 6.10155C22.8259 6.4614 22.6234 6.94942 22.623 7.45843ZM9.53795 29.0236C7.97802 28.9526 7.13015 28.6927 6.56669 28.4732C5.81968 28.1824 5.28669 27.836 4.72631 27.2764C4.16592 26.7168 3.81904 26.1843 3.52951 25.4373C3.30986 24.8741 3.05002 24.026 2.9791 22.466C2.90154 20.7795 2.88605 20.2729 2.88605 16.0001C2.88605 11.7274 2.90282 11.2221 2.9791 9.53421C3.05014 7.97427 3.3119 7.12781 3.52951 6.56294C3.82032 5.81594 4.16669 5.28294 4.72631 4.72256C5.28592 4.16218 5.8184 3.8153 6.56669 3.52576C7.12989 3.30611 7.97802 3.04627 9.53795 2.97536C11.2245 2.89779 11.7311 2.8823 16.002 2.8823C20.2728 2.8823 20.7799 2.89907 22.4679 2.97536C24.0278 3.0464 24.8743 3.30816 25.4391 3.52576C26.1861 3.8153 26.7191 4.16294 27.2795 4.72256C27.8399 5.28218 28.1855 5.81594 28.4763 6.56294C28.696 7.12614 28.9558 7.97427 29.0267 9.53421C29.1043 11.2221 29.1198 11.7274 29.1198 16.0001C29.1198 20.2729 29.1043 20.7781 29.0267 22.466C28.9557 24.026 28.6946 24.8739 28.4763 25.4373C28.1855 26.1843 27.8391 26.7173 27.2795 27.2764C26.7199 27.8355 26.1861 28.1824 25.4391 28.4732C24.8759 28.6929 24.0278 28.9527 22.4679 29.0236C20.7813 29.1012 20.2747 29.1167 16.002 29.1167C11.7292 29.1167 11.224 29.1012 9.53795 29.0236ZM9.40547 0.096896C7.70218 0.174464 6.53827 0.444544 5.52182 0.840064C4.46915 1.24851 3.57802 1.79648 2.68752 2.68557C1.79703 3.57466 1.25047 4.4672 0.842017 5.51987C0.446497 6.53696 0.176417 7.70022 0.0988491 9.40352C0.0200011 11.1095 0.00195312 11.6549 0.00195312 16C0.00195312 20.3451 0.0200011 20.8905 0.0988491 22.5965C0.176417 24.2999 0.446497 25.463 0.842017 26.4801C1.25047 27.5322 1.79715 28.4257 2.68752 29.3144C3.57789 30.2031 4.46915 30.7503 5.52182 31.1599C6.54019 31.5555 7.70218 31.8255 9.40547 31.9031C11.1124 31.9807 11.6569 32 16.002 32C20.347 32 20.8924 31.982 22.5984 31.9031C24.3019 31.8255 25.465 31.5555 26.4821 31.1599C27.5341 30.7503 28.4259 30.2035 29.3164 29.3144C30.2069 28.4253 30.7523 27.5322 31.1619 26.4801C31.5574 25.463 31.8288 24.2998 31.9051 22.5965C31.9826 20.8892 32.0007 20.3451 32.0007 16C32.0007 11.6549 31.9826 11.1095 31.9051 9.40352C31.8275 7.7001 31.5574 6.53632 31.1619 5.51987C30.7523 4.46784 30.2055 3.57606 29.3164 2.68557C28.4273 1.79507 27.5341 1.24851 26.4834 0.840064C25.465 0.444544 24.3017 0.173184 22.5997 0.096896C20.8937 0.019328 20.3483 0 16.0032 0C11.6581 0 11.1124 0.018048 9.40547 0.096896Z" fill="white"/>
</g>
<defs>
<clipPath id="clip0_350_6364">
<rect width="32" height="32" fill="white"/>
</clipPath>
</defs>
</svg>
