<svg width="32" height="32" viewBox="0 0 32 32" fill="none" xmlns="http://www.w3.org/2000/svg">
<path d="M28.6386 9.53752C28.6579 9.81409 28.6579 10.0907 28.6579 10.3698C28.6579 18.8746 22.1031 28.6832 10.1173 28.6832V28.6781C6.57665 28.6832 3.10955 27.6814 0.128906 25.7926C0.643745 25.8538 1.16116 25.8844 1.67987 25.8857C4.61407 25.8882 7.46439 24.9158 9.77278 23.1251C6.98439 23.0728 4.53923 21.277 3.68504 18.6554C4.66181 18.8414 5.66826 18.8032 6.62697 18.5445C3.58697 17.9378 1.39987 15.2996 1.39987 12.2357V12.1541C2.30568 12.6524 3.31987 12.929 4.35729 12.9596C1.49407 11.0695 0.611487 7.30713 2.34052 4.36556C5.64891 8.38664 10.5302 10.8312 15.7702 11.0899C15.245 8.85439 15.9625 6.51184 17.6554 4.94037C20.2799 2.50351 24.4076 2.62841 26.8747 5.21949C28.3341 4.93527 29.7328 4.40635 31.0128 3.65694C30.5263 5.14684 29.5083 6.41243 28.1483 7.21664C29.4399 7.06625 30.7018 6.72468 31.8902 6.20341C31.0154 7.49831 29.9134 8.62625 28.6386 9.53752Z" fill="white"/>
</svg>
