<svg width="24" height="8" viewBox="0 0 24 8" fill="none" xmlns="http://www.w3.org/2000/svg">
<g clip-path="url(#clip0_196_5966)">
<path d="M15.6282 0.111816C13.9258 0.111816 12.4044 0.995057 12.4044 2.62691C12.4044 4.49834 15.1026 4.6276 15.1026 5.56775C15.1026 5.96361 14.6494 6.31797 13.8753 6.31797C12.7768 6.31797 11.9557 5.82283 11.9557 5.82283L11.6044 7.46955C11.6044 7.46955 12.5502 7.88779 13.806 7.88779C15.6672 7.88779 17.1318 6.96119 17.1318 5.30143C17.1318 3.32393 14.4224 3.19851 14.4224 2.32589C14.4224 2.01579 14.7945 1.67601 15.5663 1.67601C16.4372 1.67601 17.1477 2.03612 17.1477 2.03612L17.4916 0.445662C17.4916 0.445662 16.7185 0.111816 15.6282 0.111816ZM0.0529404 0.231851L0.0117188 0.47192C0.0117188 0.47192 0.727917 0.603123 1.37297 0.864845C2.20353 1.16496 2.26269 1.33967 2.40257 1.88232L3.92684 7.76401H5.97012L9.11795 0.231851H7.07936L5.05668 5.353L4.23132 1.01207C4.15562 0.515258 3.77221 0.231851 3.30289 0.231851H0.0529404ZM9.9377 0.231851L8.33849 7.76401H10.2825L11.8761 0.231851H9.9377ZM20.7799 0.231851C20.3112 0.231851 20.0628 0.483062 19.8805 0.922048L17.0325 7.76401H19.0711L19.4655 6.62368H21.9491L22.189 7.76401H23.9877L22.4185 0.231851H20.7799ZM21.0451 2.26681L21.6493 5.09324H20.0304L21.0451 2.26681Z" fill="white"/>
</g>
<defs>
<clipPath id="clip0_196_5966">
<rect width="24" height="7.8" fill="white" transform="translate(0 0.100098)"/>
</clipPath>
</defs>
</svg>
